<?xml version="1.0" encoding="UTF-8" standalone="no"?><!DOCTYPE svg PUBLIC "-//W3C//DTD SVG 1.1//EN" "http://www.w3.org/Graphics/SVG/1.1/DTD/svg11.dtd"><svg width="100%" height="100%" viewBox="0 0 482 167" version="1.1" xmlns="http://www.w3.org/2000/svg" xmlns:xlink="http://www.w3.org/1999/xlink" xml:space="preserve" xmlns:serif="http://www.serif.com/" style="fill-rule:evenodd;clip-rule:evenodd;stroke-linecap:round;"><g><g><path d="M230.494,23.575c2.279,0 4.395,0.25 6.337,0.738c1.932,0.467 3.516,1.064 4.731,1.78c1.563,0.9 2.789,2.116 3.689,3.646c0.89,1.508 1.346,3.211 1.346,5.121c-0,2.344 -0.76,4.286 -2.257,5.816c-1.508,1.541 -3.451,2.301 -5.816,2.301c-2.409,-0 -4.297,-0.673 -5.686,-2.04c-1.367,-1.389 -2.04,-3.223 -2.04,-5.513c0,-2.018 0.651,-3.797 1.953,-5.338c1.324,-1.53 2.974,-2.561 4.948,-3.082c-0.846,-0.662 -1.953,-0.998 -3.342,-0.998c-3.591,0 -6.119,1.931 -7.595,5.773c-1.454,3.819 -2.17,8.365 -2.17,13.628c-0,5.382 1.009,9.234 3.038,11.545c2.018,2.29 4.514,3.429 7.465,3.429c4.08,0 7.465,-1.877 10.156,-5.642l1.433,0.521c-1.216,3.938 -3.299,7.313 -6.25,10.112c-2.952,2.778 -6.717,4.167 -11.285,4.167c-6.109,0 -11.013,-1.823 -14.714,-5.469c-3.71,-3.646 -5.555,-9.462 -5.555,-17.448c-0,-7.693 1.964,-13.455 5.903,-17.274c3.96,-3.841 9.201,-5.773 15.711,-5.773Z" style="fill:#fefefe;fill-rule:nonzero;"/></g></g><g><g><path d="M272.842,23.575c6.879,0 12.196,1.813 15.929,5.426c3.754,3.624 5.642,9.494 5.642,17.621c-0,8.106 -1.888,13.954 -5.642,17.535c-3.733,3.592 -9.05,5.382 -15.929,5.382c-6.923,0 -12.262,-1.79 -16.016,-5.382c-3.733,-3.581 -5.599,-9.429 -5.599,-17.535c0,-8.127 1.866,-13.997 5.599,-17.621c3.754,-3.613 9.093,-5.426 16.016,-5.426Zm-0,1.693c-1.802,0 -3.234,1.769 -4.297,5.295c-1.074,3.538 -1.606,8.887 -1.606,16.059c-0,7.151 0.532,12.479 1.606,15.973c1.063,3.504 2.495,5.251 4.297,5.251c1.79,0 3.212,-1.747 4.253,-5.251c1.064,-3.494 1.606,-8.822 1.606,-15.973c0,-7.172 -0.542,-12.521 -1.606,-16.059c-1.041,-3.526 -2.463,-5.295 -4.253,-5.295Z" style="fill:#fefefe;fill-rule:nonzero;"/></g></g><g><g><path d="M342.155,59.122c0,2.583 0.348,4.46 1.042,5.643c0.695,1.161 1.91,1.736 3.646,1.736l-0,1.779c-1.736,-0.173 -3.472,-0.26 -5.208,-0.26c-5.816,-0 -10.699,0.391 -14.627,1.172l-0,-5.946c-1.194,2.17 -2.583,3.765 -4.167,4.774c-1.595,1.009 -3.624,1.519 -6.076,1.519c-5.154,0 -9.31,-1.91 -12.457,-5.729c-3.125,-3.841 -4.687,-9.69 -4.687,-17.535c-0,-7.465 1.66,-13.108 4.991,-16.927c3.32,-3.841 7.878,-5.773 13.672,-5.773c3.581,0 6.489,0.717 8.724,2.127l-0,-12.977c-0,-2.572 -0.347,-4.438 -1.042,-5.599c-0.694,-1.183 -1.909,-1.78 -3.646,-1.78l0,-1.779c1.737,0.173 3.473,0.26 5.209,0.26c5.816,0 10.688,-0.39 14.626,-1.172l0,56.467Zm-21.18,6.033c1.617,0 3.016,-0.564 4.21,-1.692c1.215,-1.151 1.823,-2.605 1.823,-4.341l-0,-31.684c-1.215,-0.716 -2.539,-1.085 -3.95,-1.085c-2.636,0 -4.59,1.671 -5.859,4.992c-1.248,3.331 -1.866,8.398 -1.866,15.191c-0,6.89 0.499,11.718 1.519,14.496c1.009,2.756 2.387,4.123 4.123,4.123Z" style="fill:#fefefe;fill-rule:nonzero;"/></g></g><g><g><path d="M376.178,60.381c4.079,0 7.465,-1.877 10.156,-5.642l1.432,0.521c-1.248,3.938 -3.342,7.313 -6.293,10.112c-2.93,2.778 -6.684,4.167 -11.285,4.167c-5.881,0 -10.579,-1.823 -14.106,-5.469c-3.537,-3.646 -5.295,-9.462 -5.295,-17.448c-0,-7.693 1.964,-13.455 5.903,-17.274c3.96,-3.841 9.201,-5.773 15.712,-5.773c10.557,0 15.842,6.283 15.842,18.837l-21.658,0c-0.066,0.673 -0.087,1.671 -0.087,2.995c-0,5.382 0.933,9.234 2.821,11.545c1.877,2.29 4.167,3.429 6.858,3.429Zm-4.384,-34.852c-3.125,-0 -4.981,5.099 -5.556,15.277l9.766,0c0.054,-4.481 -0.282,-8.138 -0.998,-10.981c-0.695,-2.864 -1.769,-4.296 -3.212,-4.296Z" style="fill:#fefefe;fill-rule:nonzero;"/></g></g><g><g><path d="M228.899,113.96l1.303,-0l-1.563,4.991c-0.781,2.518 -1.91,4.33 -3.385,5.426c-1.454,1.063 -2.973,1.606 -4.558,1.606c-1.389,-0 -2.463,-0.369 -3.212,-1.086c-0.727,-0.716 -1.085,-1.757 -1.085,-3.125c0,-1.269 0.304,-3.049 0.912,-5.338l0.955,-3.472c-2.149,4.6 -4.33,7.932 -6.554,9.982c-2.235,2.029 -4.601,3.039 -7.118,3.039c-2.235,-0 -3.971,-0.76 -5.208,-2.257c-1.248,-1.498 -1.867,-3.744 -1.867,-6.728c0,-3.787 0.977,-7.877 2.952,-12.283c1.996,-4.427 4.687,-8.138 8.073,-11.154c3.385,-3.039 7.052,-4.558 11.024,-4.558c0.89,0 1.736,0.304 2.517,0.912c0.781,0.586 1.324,1.367 1.649,2.344l3.386,-12.761c0.174,-0.575 0.26,-1.183 0.26,-1.823c0,-0.89 -0.347,-1.562 -1.041,-1.996c-0.695,-0.434 -1.888,-0.651 -3.559,-0.651l0.39,-1.433c2.398,-0.054 4.568,-0.303 6.511,-0.737c1.931,-0.456 3.787,-1.151 5.555,-2.084l-13.368,48.438c-0.26,1.106 -0.39,1.888 -0.39,2.343c-0,1.281 0.531,1.91 1.605,1.91c0.923,0 1.758,-0.521 2.518,-1.562c0.781,-1.042 1.606,-2.843 2.474,-5.426l0.824,-2.517Zm-22.309,9.852c1.357,0 2.919,-0.954 4.688,-2.864c1.79,-1.91 3.537,-4.471 5.252,-7.682c1.736,-3.212 3.168,-6.641 4.297,-10.287l2.43,-8.941c-0.293,-1.183 -0.77,-2.051 -1.432,-2.604c-0.673,-0.575 -1.411,-0.868 -2.214,-0.868c-2.778,-0 -5.403,1.476 -7.856,4.427c-2.43,2.93 -4.405,6.554 -5.902,10.894c-1.509,4.319 -2.257,8.312 -2.257,11.979c-0,3.972 0.998,5.946 2.994,5.946Z" style="fill:#fefefe;fill-rule:nonzero;"/></g></g><g><g><path d="M262.06,93.517c0,3.679 -2.072,6.901 -6.207,9.679c-4.144,2.778 -8.875,5.035 -14.192,6.771c-0.499,2.257 -0.738,4.46 -0.738,6.597c-0,4.373 1.562,6.554 4.687,6.554c3.907,-0 7.401,-2.268 10.504,-6.814l1.085,0.521c-1.454,2.517 -3.418,4.676 -5.903,6.467c-2.463,1.79 -5.067,2.691 -7.812,2.691c-2.811,-0 -5.013,-0.814 -6.598,-2.431c-1.595,-1.649 -2.387,-4.047 -2.387,-7.205c0,-3.44 1.009,-7.335 3.038,-11.675c2.019,-4.341 4.753,-8.03 8.204,-11.068c3.472,-3.06 7.226,-4.601 11.284,-4.601c1.443,0 2.648,0.391 3.603,1.172c0.955,0.76 1.432,1.867 1.432,3.342Zm-6.554,-3.212c-1.454,0 -3.071,0.858 -4.861,2.561c-1.801,1.715 -3.494,3.982 -5.078,6.814c-1.562,2.811 -2.756,5.806 -3.559,8.985c4.308,-1.498 7.4,-2.962 9.288,-4.384c1.671,-1.302 2.973,-2.886 3.906,-4.774c0.923,-1.91 1.389,-3.95 1.389,-6.12c0,-1.237 -0.086,-2.062 -0.26,-2.474c-0.174,-0.401 -0.456,-0.608 -0.825,-0.608Z" style="fill:#fefefe;fill-rule:nonzero;"/></g></g><g><g><path d="M295.54,89.003c0.868,0 1.585,0.239 2.17,0.695c0.576,0.434 0.869,1.041 0.869,1.823c-0,0.868 -0.348,1.638 -1.042,2.3c-0.695,0.673 -1.563,0.998 -2.604,0.998c-1.541,0 -2.973,-0.542 -4.297,-1.649c-2.865,2.582 -5.328,6.554 -7.379,11.936l1.65,14.583c0.173,1.161 0.445,1.986 0.824,2.474c0.369,0.467 0.879,0.695 1.519,0.695c0.749,-0 1.476,-0.445 2.171,-1.346c0.716,-0.89 1.519,-2.539 2.387,-4.948l0.868,-2.517l1.302,-0l-1.693,4.991c-1.682,4.633 -4.275,6.945 -7.769,6.945c-3.277,-0 -5.165,-2.095 -5.686,-6.294l-0.998,-8.854c-1.823,4.058 -4.243,7.704 -7.248,10.937c-1.422,1.454 -2.67,2.518 -3.733,3.212c-1.074,0.662 -2.127,0.999 -3.168,0.999c-0.977,-0 -1.736,-0.217 -2.257,-0.652c-0.521,-0.434 -0.781,-1.052 -0.781,-1.866c-0,-0.868 0.347,-1.627 1.041,-2.3c0.673,-0.662 1.487,-0.998 2.474,-0.998c1.476,-0 2.908,0.553 4.297,1.649c1.877,-1.736 3.613,-3.798 5.208,-6.207c1.585,-2.398 2.876,-4.817 3.863,-7.248l-1.432,-13.064c-0.174,-1.15 -0.456,-1.964 -0.825,-2.431c-0.347,-0.488 -0.846,-0.738 -1.475,-0.738c-0.782,0 -1.541,0.456 -2.257,1.346c-0.695,0.9 -1.465,2.55 -2.301,4.948l-0.911,2.517l-1.302,0l1.736,-4.991c1.671,-4.623 4.264,-6.945 7.769,-6.945c1.671,0 2.962,0.467 3.863,1.389c0.922,0.933 1.519,2.561 1.779,4.905l0.825,7.031c1.497,-3.472 3.407,-6.521 5.729,-9.158c1.27,-1.497 2.442,-2.572 3.516,-3.212c1.063,-0.629 2.17,-0.955 3.298,-0.955Z" style="fill:#fefefe;fill-rule:nonzero;"/></g></g><g><g><path d="M307.08,119.212c-0.152,0.553 -0.217,1.063 -0.217,1.519c-0,0.9 0.271,1.584 0.824,2.04c0.543,0.466 1.259,0.694 2.127,0.694c1.129,0 2.181,-0.488 3.169,-1.476c0.976,-0.976 1.953,-2.756 2.908,-5.338l0.954,-2.691l1.303,-0l-1.433,4.297c-0.955,2.843 -2.202,4.839 -3.732,5.989c-1.509,1.151 -3.375,1.737 -5.599,1.737c-2.062,-0 -3.592,-0.5 -4.601,-1.476c-0.987,-1.009 -1.476,-2.398 -1.476,-4.167c0,-1.183 0.196,-2.485 0.608,-3.906l7.205,-25.13l-6.12,-0l0.347,-1.346l6.12,0l2.995,-10.373c2.452,-0.087 4.514,-0.402 6.163,-0.955l-3.212,11.328l9.028,0l-0.217,1.346l-9.201,-0l-7.943,27.908Z" style="fill:#fefefe;fill-rule:nonzero;"/></g></g><g><g><path d="M350.144,93.517c-0,3.679 -2.073,6.901 -6.207,9.679c-4.145,2.778 -8.876,5.035 -14.193,6.771c-0.499,2.257 -0.738,4.46 -0.738,6.597c0,4.373 1.563,6.554 4.688,6.554c3.906,-0 7.4,-2.268 10.503,-6.814l1.086,0.521c-1.454,2.517 -3.418,4.676 -5.903,6.467c-2.463,1.79 -5.068,2.691 -7.813,2.691c-2.81,-0 -5.013,-0.814 -6.597,-2.431c-1.595,-1.649 -2.387,-4.047 -2.387,-7.205c-0,-3.44 1.009,-7.335 3.038,-11.675c2.018,-4.341 4.753,-8.03 8.203,-11.068c3.472,-3.06 7.227,-4.601 11.285,-4.601c1.443,0 2.647,0.391 3.602,1.172c0.955,0.76 1.433,1.867 1.433,3.342Zm-6.554,-3.212c-1.454,0 -3.071,0.858 -4.861,2.561c-1.802,1.715 -3.494,3.982 -5.078,6.814c-1.563,2.811 -2.757,5.806 -3.559,8.985c4.307,-1.498 7.4,-2.962 9.288,-4.384c1.671,-1.302 2.973,-2.886 3.906,-4.774c0.922,-1.91 1.389,-3.95 1.389,-6.12c-0,-1.237 -0.087,-2.062 -0.261,-2.474c-0.173,-0.401 -0.455,-0.608 -0.824,-0.608Z" style="fill:#fefefe;fill-rule:nonzero;"/></g></g><g><g><path d="M377.982,89.003c1.215,0 2.181,0.369 2.908,1.085c0.748,0.727 1.128,1.671 1.128,2.822c-0,1.367 -0.477,2.517 -1.432,3.472c-0.955,0.955 -2.073,1.432 -3.342,1.432c-0.847,0 -1.509,-0.217 -1.997,-0.651c-0.499,-0.434 -0.738,-1.042 -0.738,-1.823c0,-1.042 0.261,-1.92 0.782,-2.647c0.542,-0.717 1.312,-1.281 2.3,-1.693c-0.206,-0.195 -0.467,-0.304 -0.781,-0.304c-2.463,0 -5.144,2.669 -8.03,7.986c-2.864,5.295 -5.577,12.283 -8.116,20.964l-1.389,5.382l-5.946,-0l8.203,-29.254c0.315,-1.009 0.477,-1.91 0.477,-2.691c0,-1.041 -0.477,-1.562 -1.432,-1.562c-1.02,-0 -1.942,0.542 -2.778,1.606c-0.846,1.074 -1.692,2.853 -2.561,5.338l-0.868,2.561l-1.302,-0l1.693,-4.991c1.649,-4.688 4.405,-7.032 8.29,-7.032c2.572,0 3.863,1.324 3.863,3.95c-0,1.28 -0.326,3.147 -0.955,5.599l-2.17,8.594c2.452,-6.598 4.752,-11.263 6.901,-14.019c2.17,-2.746 4.601,-4.124 7.292,-4.124Z" style="fill:#fefefe;fill-rule:nonzero;"/></g></g><g><g><path d="M381.526,115.262c0,-3.581 0.792,-7.433 2.387,-11.545c1.585,-4.134 3.885,-7.617 6.901,-10.46c3.006,-2.832 6.478,-4.254 10.417,-4.254c2.919,0 5.208,0.901 6.858,2.691c1.671,1.802 2.517,4.471 2.517,8.03c0,3.591 -0.803,7.454 -2.387,11.588c-1.595,4.113 -3.895,7.585 -6.901,10.417c-3.017,2.843 -6.5,4.254 -10.46,4.254c-2.897,-0 -5.187,-0.901 -6.858,-2.691c-1.649,-1.791 -2.474,-4.471 -2.474,-8.03Zm19.314,-24.913c-2.322,-0 -4.513,1.497 -6.597,4.47c-2.061,2.952 -3.722,6.641 -4.991,11.068c-1.248,4.427 -1.866,8.702 -1.866,12.804c-0,2.061 0.314,3.559 0.954,4.514c0.63,0.955 1.617,1.432 2.952,1.432c2.311,0 4.492,-1.476 6.554,-4.427c2.083,-2.973 3.743,-6.684 4.991,-11.111c1.237,-4.427 1.866,-8.692 1.866,-12.804c0,-2.051 -0.325,-3.559 -0.955,-4.514c-0.64,-0.955 -1.605,-1.432 -2.908,-1.432Z" style="fill:#fefefe;fill-rule:nonzero;"/></g></g><g><g><path d="M447.417,113.96l1.302,-0l-1.692,4.991c-1.65,4.688 -4.406,7.032 -8.247,7.032c-0.727,-0 -1.41,-0.163 -2.04,-0.478c-0.64,-0.325 -1.117,-0.759 -1.432,-1.345c-0.293,-0.63 -0.434,-1.346 -0.434,-2.127c0,-1.183 0.315,-3.049 0.955,-5.599l2.127,-8.55c-2.637,6.51 -5.209,11.154 -7.726,13.932c-2.496,2.778 -5.208,4.167 -8.16,4.167c-3.819,-0 -5.729,-1.747 -5.729,-5.252c0,-1.443 0.315,-3.125 0.955,-5.035l6.597,-19.922c0.369,-1.096 0.564,-1.953 0.564,-2.561c0,-1.128 -0.553,-1.692 -1.649,-1.692c-0.933,-0 -1.812,0.521 -2.648,1.562c-0.846,1.02 -1.714,2.811 -2.604,5.382l-0.911,2.561l-1.259,-0l1.693,-4.991c1.617,-4.688 4.362,-7.032 8.246,-7.032c3.18,0 4.775,1.411 4.775,4.21c-0,1.389 -0.369,3.169 -1.085,5.339l-6.467,19.531c-0.467,1.367 -0.695,2.496 -0.695,3.386c0,1.562 0.716,2.343 2.17,2.343c1.791,0 3.744,-1.302 5.86,-3.906c2.137,-2.626 4.253,-6.261 6.336,-10.894c2.106,-4.655 3.928,-9.896 5.469,-15.712l0.825,-3.342c2.604,-0.087 4.666,-0.401 6.206,-0.955l-8.463,30.209c-0.326,1.193 -0.477,2.083 -0.477,2.691c-0,1.041 0.477,1.562 1.432,1.562c1.009,0 1.931,-0.532 2.778,-1.606c0.835,-1.063 1.692,-2.864 2.56,-5.382l0.868,-2.517Z" style="fill:#fefefe;fill-rule:nonzero;"/></g></g><g><g><path d="M456.112,123.986c0.434,0.239 0.868,0.412 1.302,0.521c0.434,0.087 1.042,0.13 1.823,0.13c2.051,0 3.711,-0.608 4.991,-1.823c1.27,-1.237 1.91,-2.973 1.91,-5.208c-0,-1.476 -0.282,-2.908 -0.825,-4.297c-0.553,-1.389 -1.465,-2.962 -2.734,-4.731c-1.541,-2.083 -2.669,-3.787 -3.386,-5.122c-0.694,-1.356 -1.041,-2.951 -1.041,-4.774c-0,-1.844 0.477,-3.515 1.432,-4.991c0.955,-1.476 2.235,-2.615 3.863,-3.429c1.617,-0.835 3.385,-1.259 5.295,-1.259c2.344,0 4.308,0.456 5.903,1.346c1.584,0.868 2.387,2.409 2.387,4.601c0,0.813 -0.26,1.605 -0.781,2.387c-0.521,0.759 -1.302,1.128 -2.344,1.128c-0.781,0 -1.432,-0.26 -1.953,-0.781c-0.521,-0.543 -0.781,-1.237 -0.781,-2.083c-0,-1.444 0.629,-2.963 1.909,-4.558c-0.868,-0.542 -1.996,-0.824 -3.385,-0.824c-1.736,-0 -3.168,0.586 -4.297,1.736c-1.107,1.161 -1.649,2.756 -1.649,4.774c-0,1.161 0.195,2.17 0.607,3.038c0.402,0.847 1.151,2.073 2.257,3.689l1.216,1.78c1.356,2.083 2.365,3.885 3.038,5.382c0.662,1.508 0.998,3.06 0.998,4.644c0,2.062 -0.542,3.906 -1.606,5.556c-1.074,1.627 -2.506,2.897 -4.297,3.819c-1.801,0.89 -3.754,1.346 -5.859,1.346c-2.583,-0 -4.764,-0.554 -6.554,-1.65c-1.758,-1.128 -2.647,-2.832 -2.647,-5.121c-0,-0.749 0.217,-1.443 0.651,-2.084c0.434,-0.629 1.106,-0.955 2.04,-0.955c0.976,0 1.714,0.413 2.213,1.216c0.521,0.814 0.781,1.844 0.781,3.081c0,0.76 -0.162,1.932 -0.477,3.516Z" style="fill:#fefefe;fill-rule:nonzero;"/></g></g><path d="M30.968,0l-30.968,30.968l0,104.731l30.968,30.968l104.742,-0l30.957,-30.968l-0,-104.731l-30.957,-30.968l-104.742,0m2.767,5.783l99.208,0l27.94,27.952l0,99.197l-27.94,27.951l-99.208,0l-27.952,-27.951l0,-99.197l27.952,-27.952" style="fill:#fefefe;fill-rule:nonzero;"/><g><g><path d="M50.747,71.537c3.005,0 5.772,0.326 8.29,0.955c2.517,0.608 4.568,1.378 6.163,2.3c2.051,1.194 3.656,2.767 4.817,4.731c1.183,1.975 1.78,4.199 1.78,6.684c-0,3.071 -0.987,5.621 -2.951,7.639c-1.975,1.997 -4.503,2.995 -7.596,2.995c-3.125,-0 -5.588,-0.89 -7.378,-2.691c-1.802,-1.79 -2.691,-4.178 -2.691,-7.162c-0,-2.625 0.846,-4.947 2.56,-6.944c1.737,-2.018 3.874,-3.364 6.424,-4.036c-1.107,-0.869 -2.561,-1.303 -4.384,-1.303c-4.687,0 -7.986,2.507 -9.895,7.509c-1.889,5.013 -2.822,10.938 -2.822,17.795c0,7.032 1.313,12.055 3.95,15.061c2.626,2.984 5.881,4.471 9.766,4.471c5.316,-0 9.744,-2.442 13.281,-7.336l1.823,0.651c-1.595,5.122 -4.319,9.506 -8.16,13.152c-3.819,3.645 -8.724,5.468 -14.713,5.468c-7.987,0 -14.399,-2.365 -19.228,-7.118c-4.807,-4.742 -7.205,-12.337 -7.205,-22.786c0,-10.005 2.572,-17.513 7.726,-22.526c5.143,-5.002 11.957,-7.509 20.443,-7.509Z" style="fill:#fefefe;fill-rule:nonzero;"/></g></g><g><g><path d="M130.731,112.205l2.083,0l-2.517,7.987c-1.248,4.025 -3.039,6.922 -5.382,8.68c-2.322,1.736 -4.764,2.604 -7.335,2.604c-2.257,0 -3.983,-0.586 -5.165,-1.736c-1.161,-1.15 -1.736,-2.832 -1.736,-5.035c-0,-2.05 0.477,-4.904 1.432,-8.55l1.519,-5.599c-3.451,7.379 -6.966,12.717 -10.547,16.016c-3.559,3.277 -7.357,4.904 -11.371,4.904c-3.592,0 -6.402,-1.204 -8.421,-3.602c-1.996,-2.398 -2.994,-6.011 -2.994,-10.851c-0,-6.076 1.584,-12.652 4.774,-19.748c3.179,-7.086 7.487,-13.064 12.934,-17.925c5.436,-4.862 11.339,-7.292 17.708,-7.292c1.476,-0 2.832,0.477 4.08,1.432c1.237,0.955 2.105,2.246 2.604,3.863l5.512,-20.529c0.283,-0.955 0.434,-1.932 0.434,-2.952c0,-1.476 -0.585,-2.561 -1.736,-3.255c-1.128,-0.695 -3.038,-1.042 -5.729,-1.042l0.651,-2.3c3.874,-0.054 7.357,-0.445 10.46,-1.172c3.125,-0.749 6.098,-1.845 8.941,-3.299l-21.484,77.822c-0.434,1.768 -0.651,3.016 -0.651,3.732c-0,2.062 0.879,3.082 2.647,3.082c1.444,-0 2.789,-0.836 4.037,-2.518c1.237,-1.671 2.561,-4.568 3.95,-8.68l1.302,-4.037Zm-35.851,15.799c2.192,0 4.709,-1.53 7.552,-4.601c2.865,-3.092 5.686,-7.215 8.464,-12.369c2.777,-5.144 5.078,-10.645 6.901,-16.493l3.862,-14.367c-0.466,-1.877 -1.237,-3.277 -2.3,-4.21c-1.042,-0.922 -2.213,-1.389 -3.516,-1.389c-4.459,0 -8.669,2.366 -12.63,7.075c-3.939,4.72 -7.118,10.547 -9.548,17.491c-2.409,6.945 -3.603,13.39 -3.603,19.314c0,6.37 1.606,9.549 4.818,9.549Z" style="fill:#fefefe;fill-rule:nonzero;"/></g></g><g><g><path d="M250.034,160.778l8.42,-0l0,2.951l-11.675,0l0,-19.444l3.255,-0l0,16.493Z" style="fill:#fefefe;fill-rule:nonzero;"/></g></g><g><g><path d="M267.509,148.842c2.518,0 4.341,0.77 5.469,2.3c1.15,1.541 1.628,3.679 1.432,6.424l-11.154,-0c0.26,1.161 0.792,2.072 1.606,2.734c0.803,0.641 1.79,0.955 2.951,0.955c1.671,0 3.06,-0.575 4.167,-1.736l1.693,1.823c-1.509,1.682 -3.549,2.517 -6.12,2.517c-2.257,0 -4.08,-0.694 -5.469,-2.083c-1.389,-1.389 -2.083,-3.179 -2.083,-5.382c-0,-2.224 0.694,-4.036 2.083,-5.425c1.389,-1.389 3.19,-2.094 5.425,-2.127Zm-4.34,6.38l8.464,0c-0.065,-1.183 -0.467,-2.105 -1.216,-2.778c-0.727,-0.694 -1.692,-1.041 -2.908,-1.041c-1.161,-0 -2.126,0.347 -2.908,1.041c-0.759,0.673 -1.237,1.595 -1.432,2.778Z" style="fill:#fefefe;fill-rule:nonzero;"/></g></g><g><g><path d="M286.614,163.729l0,-1.823c-1.074,1.302 -2.713,1.953 -4.904,1.953c-1.563,0 -2.822,-0.412 -3.776,-1.258c-0.955,-0.868 -1.433,-1.964 -1.433,-3.299c0,-1.356 0.488,-2.43 1.476,-3.212c0.976,-0.803 2.355,-1.226 4.123,-1.258l4.471,-0l-0,-0.434c-0,-0.955 -0.304,-1.693 -0.912,-2.214c-0.607,-0.521 -1.475,-0.781 -2.604,-0.781c-1.454,-0 -2.908,0.51 -4.384,1.519l-1.302,-2.214c1.129,-0.662 2.138,-1.139 3.038,-1.432c0.89,-0.282 2.008,-0.434 3.342,-0.434c1.878,0 3.342,0.467 4.384,1.389c1.042,0.901 1.563,2.17 1.563,3.819l0.043,9.679l-3.125,0Zm-4.253,-2.387c1.128,0 2.083,-0.26 2.864,-0.781c0.803,-0.543 1.259,-1.226 1.346,-2.04l-0,-1.346l-3.993,0c-1.075,0 -1.856,0.163 -2.344,0.478c-0.499,0.293 -0.738,0.781 -0.738,1.475c0,0.673 0.26,1.205 0.781,1.606c0.521,0.413 1.216,0.608 2.084,0.608Z" style="fill:#fefefe;fill-rule:nonzero;"/></g></g><g><g><path d="M302.625,148.842c1.736,0 3.082,0.51 4.036,1.519c0.977,1.02 1.476,2.409 1.476,4.167l0,9.201l-3.168,0l-0,-8.29c-0,-1.128 -0.326,-2.007 -0.955,-2.647c-0.64,-0.63 -1.508,-0.955 -2.604,-0.955c-1.194,0.032 -2.16,0.423 -2.908,1.172c-0.76,0.727 -1.194,1.682 -1.302,2.864l-0,7.856l-3.212,0l-0,-14.757l3.212,0l-0,2.821c1.009,-1.964 2.821,-2.951 5.425,-2.951Z" style="fill:#fefefe;fill-rule:nonzero;"/></g></g><g><g><path d="M327.113,160.344l0.825,2.43c-1.215,0.727 -2.431,1.085 -3.646,1.085c-1.194,0 -2.17,-0.358 -2.951,-1.085c-0.782,-0.716 -1.172,-1.79 -1.172,-3.212l-0,-7.682l-2.084,0l0,-2.387l2.084,0l-0,-4.036l3.168,-0l0,4.036l4.34,0l0,2.387l-4.34,0l0,7.118c0,0.727 0.13,1.248 0.391,1.563c0.26,0.293 0.651,0.434 1.172,0.434c0.607,-0 1.345,-0.217 2.213,-0.651Z" style="fill:#fefefe;fill-rule:nonzero;"/></g></g><g><g><path d="M337.199,148.842c2.279,0 4.134,0.694 5.556,2.083c1.443,1.368 2.17,3.169 2.17,5.426c-0,2.235 -0.727,4.036 -2.17,5.425c-1.422,1.389 -3.277,2.083 -5.556,2.083c-2.289,0 -4.156,-0.694 -5.599,-2.083c-1.421,-1.389 -2.127,-3.19 -2.127,-5.425c0,-2.257 0.706,-4.058 2.127,-5.426c1.443,-1.389 3.31,-2.083 5.599,-2.083Zm0,2.734c-1.335,0 -2.42,0.456 -3.255,1.346c-0.847,0.9 -1.259,2.04 -1.259,3.429c0,1.454 0.412,2.626 1.259,3.515c0.835,0.868 1.92,1.302 3.255,1.302c1.324,0 2.409,-0.434 3.255,-1.302c0.836,-0.889 1.259,-2.061 1.259,-3.515c-0,-1.389 -0.423,-2.529 -1.259,-3.429c-0.846,-0.89 -1.931,-1.346 -3.255,-1.346Z" style="fill:#fefefe;fill-rule:nonzero;"/></g></g><g><g><path d="M358.853,160.778l8.42,-0l-0,2.951l-11.676,0l0,-19.444l3.256,-0l-0,16.493Z" style="fill:#fefefe;fill-rule:nonzero;"/></g></g><g><g><path d="M376.328,148.842c2.517,0 4.34,0.77 5.468,2.3c1.151,1.541 1.628,3.679 1.433,6.424l-11.155,-0c0.261,1.161 0.792,2.072 1.606,2.734c0.803,0.641 1.79,0.955 2.951,0.955c1.671,0 3.06,-0.575 4.167,-1.736l1.693,1.823c-1.508,1.682 -3.548,2.517 -6.12,2.517c-2.257,0 -4.08,-0.694 -5.469,-2.083c-1.389,-1.389 -2.083,-3.179 -2.083,-5.382c-0,-2.224 0.694,-4.036 2.083,-5.425c1.389,-1.389 3.19,-2.094 5.426,-2.127Zm-4.341,6.38l8.464,0c-0.065,-1.183 -0.467,-2.105 -1.215,-2.778c-0.727,-0.694 -1.693,-1.041 -2.908,-1.041c-1.161,-0 -2.127,0.347 -2.908,1.041c-0.76,0.673 -1.237,1.595 -1.433,2.778Z" style="fill:#fefefe;fill-rule:nonzero;"/></g></g><g><g><path d="M395.432,163.729l0,-1.823c-1.074,1.302 -2.712,1.953 -4.904,1.953c-1.563,0 -2.821,-0.412 -3.776,-1.258c-0.955,-0.868 -1.433,-1.964 -1.433,-3.299c0,-1.356 0.489,-2.43 1.476,-3.212c0.977,-0.803 2.355,-1.226 4.123,-1.258l4.471,-0l-0,-0.434c-0,-0.955 -0.304,-1.693 -0.912,-2.214c-0.607,-0.521 -1.475,-0.781 -2.604,-0.781c-1.454,-0 -2.908,0.51 -4.383,1.519l-1.303,-2.214c1.129,-0.662 2.138,-1.139 3.039,-1.432c0.889,-0.282 2.007,-0.434 3.342,-0.434c1.877,0 3.342,0.467 4.383,1.389c1.042,0.901 1.563,2.17 1.563,3.819l0.043,9.679l-3.125,0Zm-4.253,-2.387c1.128,0 2.083,-0.26 2.864,-0.781c0.803,-0.543 1.259,-1.226 1.346,-2.04l-0,-1.346l-3.993,0c-1.074,0 -1.856,0.163 -2.344,0.478c-0.499,0.293 -0.738,0.781 -0.738,1.475c0,0.673 0.261,1.205 0.781,1.606c0.521,0.413 1.216,0.608 2.084,0.608Z" style="fill:#fefefe;fill-rule:nonzero;"/></g></g><g><g><path d="M406.018,148.972l-0,2.908c1.009,-2.018 2.713,-3.038 5.121,-3.038l0,3.038c-1.475,-0.054 -2.68,0.293 -3.602,1.042c-0.901,0.759 -1.411,1.779 -1.519,3.081l-0,7.726l-3.212,0l0,-14.757l3.212,0Z" style="fill:#fefefe;fill-rule:nonzero;"/></g></g><g><g><path d="M422.383,148.842c1.736,0 3.082,0.51 4.037,1.519c0.976,1.02 1.476,2.409 1.476,4.167l-0,9.201l-3.169,0l0,-8.29c0,-1.128 -0.325,-2.007 -0.955,-2.647c-0.64,-0.63 -1.508,-0.955 -2.604,-0.955c-1.194,0.032 -2.159,0.423 -2.908,1.172c-0.759,0.727 -1.193,1.682 -1.302,2.864l0,7.856l-3.212,0l0,-14.757l3.212,0l0,2.821c1.009,-1.964 2.821,-2.951 5.425,-2.951Z" style="fill:#fefefe;fill-rule:nonzero;"/></g></g><path d="M202.376,155.393l24.881,-0" style="fill:none;fill-rule:nonzero;stroke:#fefefe;stroke-width:4.23px;"/><path d="M447.689,155.393l24.88,-0" style="fill:none;fill-rule:nonzero;stroke:#fefefe;stroke-width:4.23px;"/></svg>